<svg xmlns="http://www.w3.org/2000/svg" viewBox="0 0 356.27 101.43"><defs><style>.a{fill:#181818;}.b{fill:#51c2f4;}</style></defs><title>potaxium-full</title><path class="a" d="M130.89,68.13V80.34h-6.46V45.64h11.3a19.67,19.67,0,0,1,6,.82,11.57,11.57,0,0,1,4.2,2.28,8.94,8.94,0,0,1,2.45,3.5,13.06,13.06,0,0,1,0,9.08,9.63,9.63,0,0,1-2.52,3.62,11.85,11.85,0,0,1-4.2,2.35,18.72,18.72,0,0,1-5.91.84Zm0-5h4.84a9.61,9.61,0,0,0,3.1-.45A5.64,5.64,0,0,0,141,61.37a5.18,5.18,0,0,0,1.3-2,7.73,7.73,0,0,0,.43-2.66,7,7,0,0,0-.43-2.52,5,5,0,0,0-1.3-1.92,5.81,5.81,0,0,0-2.18-1.21,10.24,10.24,0,0,0-3.1-.42h-4.84Z" transform="translate(-13.8 -13.29)"/><path class="a" d="M187.5,63a19.19,19.19,0,0,1-1.27,7.07,16.77,16.77,0,0,1-3.58,5.63,16.21,16.21,0,0,1-5.54,3.71,20,20,0,0,1-14.36,0,16.34,16.34,0,0,1-5.57-3.71,16.64,16.64,0,0,1-3.59-5.63,20.31,20.31,0,0,1,0-14.14,16.6,16.6,0,0,1,3.59-5.62,16.19,16.19,0,0,1,5.57-3.71,18.7,18.7,0,0,1,7.18-1.33,18.48,18.48,0,0,1,7.18,1.34,16.35,16.35,0,0,1,5.54,3.71,16.59,16.59,0,0,1,3.58,5.61A19.23,19.23,0,0,1,187.5,63Zm-6.62,0a16,16,0,0,0-.76-5.12A10.79,10.79,0,0,0,178,54a9.29,9.29,0,0,0-3.44-2.43,12.91,12.91,0,0,0-9.16,0A9.4,9.4,0,0,0,161.88,54a10.83,10.83,0,0,0-2.19,3.85,17.44,17.44,0,0,0,0,10.25A10.78,10.78,0,0,0,161.88,72a9.59,9.59,0,0,0,3.47,2.41,12.91,12.91,0,0,0,9.16,0A9.48,9.48,0,0,0,178,72a10.75,10.75,0,0,0,2.17-3.84A16,16,0,0,0,180.88,63Z" transform="translate(-13.8 -13.29)"/><path class="a" d="M215.17,45.64v5.3H204.73v29.4h-6.45V50.94H187.79v-5.3Z" transform="translate(-13.8 -13.29)"/><path class="a" d="M246.25,80.34h-5a2.12,2.12,0,0,1-1.38-.42,2.35,2.35,0,0,1-.78-1l-2.59-7.08H222.13l-2.59,7.08a2.34,2.34,0,0,1-.75,1,2.16,2.16,0,0,1-1.38.45h-5L226,45.64h6.6Zm-22.46-13.1h11.06L230.63,55.7c-.19-.52-.4-1.12-.64-1.82s-.46-1.45-.68-2.26q-.33,1.22-.66,2.28c-.22.7-.43,1.32-.64,1.84Z" transform="translate(-13.8 -13.29)"/><path class="b" d="M258.16,62.49,247.09,45.64h6.44a2,2,0,0,1,1,.18,1.65,1.65,0,0,1,.54.59l7.89,12.74a6.65,6.65,0,0,1,.27-.61c.09-.2.21-.4.33-.61l7.23-11.4a1.57,1.57,0,0,1,1.37-.89h6.19L267.13,62.22l11.5,18.12h-6.46a1.56,1.56,0,0,1-1-.33,3.45,3.45,0,0,1-.66-.77l-8-13.3a3.37,3.37,0,0,1-.22.54c-.08.17-.16.33-.24.47l-7.7,12.29a4.16,4.16,0,0,1-.65.76,1.36,1.36,0,0,1-1,.34h-6Z" transform="translate(-13.8 -13.29)"/><path class="a" d="M289.69,80.34h-6.48V45.64h6.48Z" transform="translate(-13.8 -13.29)"/><path class="a" d="M311.46,75.14a8.44,8.44,0,0,0,3.35-.63,7,7,0,0,0,2.5-1.75A7.73,7.73,0,0,0,318.87,70a11.25,11.25,0,0,0,.54-3.6V45.64h6.45V66.42a16.11,16.11,0,0,1-1,5.73,12.79,12.79,0,0,1-7.41,7.51,17.36,17.36,0,0,1-12,0,12.87,12.87,0,0,1-4.52-3,13.1,13.1,0,0,1-2.86-4.53,16.11,16.11,0,0,1-1-5.73V45.64h6.46V66.4a11.25,11.25,0,0,0,.54,3.6,7.94,7.94,0,0,0,1.55,2.75,6.72,6.72,0,0,0,2.48,1.76A8.48,8.48,0,0,0,311.46,75.14Z" transform="translate(-13.8 -13.29)"/><path class="a" d="M350.62,67.54c.23.55.46,1.11.68,1.67.23-.58.46-1.15.7-1.71s.49-1.09.77-1.6L363,46.67a2.8,2.8,0,0,1,.39-.57,1.28,1.28,0,0,1,.46-.32,2.42,2.42,0,0,1,.56-.12l.75,0h4.87v34.7h-5.69V57.93c0-.42,0-.87,0-1.37s.06-1,.11-1.51L354,74.73a2.71,2.71,0,0,1-.94,1,2.39,2.39,0,0,1-1.34.37h-.89a2.39,2.39,0,0,1-1.34-.37,2.71,2.71,0,0,1-.94-1L338,55c.06.52.11,1,.13,1.54s0,1,0,1.41V80.34h-5.69V45.64h4.87l.74,0a2.39,2.39,0,0,1,.57.12,1.41,1.41,0,0,1,.47.32,2.19,2.19,0,0,1,.4.57l10.37,19.27C350.13,66.46,350.39,67,350.62,67.54Z" transform="translate(-13.8 -13.29)"/><rect class="a" x="39.67" width="13.07" height="50.79"/><rect class="a" x="39.67" y="50.64" width="13.07" height="50.79"/><rect class="b" x="53.47" y="5.19" width="13.07" height="117.61" transform="translate(-41.48 47.88) rotate(-45)"/><rect class="b" x="53.47" y="5.19" width="13.07" height="117.61" transform="translate(43.37 138.39) rotate(-135)"/></svg>